<svg>

	<symbol id="login" viewBox="0 0 13 12" fill="none" xmlns="http://www.w3.org/2000/svg">
    <path d="M0 12H13C12.8 9.4 10.9 7.2 8.3 6.5C9.3 5.9 10 4.8 10 3.5C10 1.6 8.4 0 6.5 0C4.6 0 3 1.6 3 3.5C3 4.8 3.7 5.9 4.7 6.5C2.1 7.2 0.2 9.4 0 12Z" fill="black"/>
  </symbol>

  <symbol id="compare" viewBox="0 0 10 12" fill="none" xmlns="http://www.w3.org/2000/svg">
    <path d="M6 0H4V12H6V0Z" fill="black"/>
    <path d="M2 4H0V12H2V4Z" fill="black"/>
    <path d="M10 3H8V12H10V3Z" fill="black"/>
  </symbol>

  <symbol id="cart" viewBox="0 0 16 14" fill="none" xmlns="http://www.w3.org/2000/svg">
    <path d="M15.3 5L11.8 5.2L8.6 0.3C8.5 0.1 8.2 0 8 0C7.8 0 7.5 0.1 7.4 0.3L4.2 5.2H0.7C0.3 5.2 0 5.5 0 5.9C0 6 0 6 0 6.1L1.9 12.9C2.1 13.6 2.6 14 3.3 14H12.7C13.4 14 13.9 13.6 14.1 12.9L16 6C16 5.9 16 5.9 16 5.8C16 5.4 15.7 5 15.3 5ZM8 1.9L10.2 5.1H5.9L8 1.9Z" fill="black"/>
  </symbol>

  <symbol id="catalog" viewBox="0 0 16 16" fill="none" xmlns="http://www.w3.org/2000/svg">
    <path d="M16 7H9V0H7V7H0V9H7V16H9V9H16V7Z" fill="black"/>
  </symbol>

  <symbol id="left-arrow-slider" viewBox="0 0 20 60" fill="none" xmlns="http://www.w3.org/2000/svg">
    <path d="M20 60H16.5L0 30L16.5 0H20L3.8 30L20 60Z" fill="black"/>
  </symbol>

  <symbol id="right-arrow-slider" viewBox="0 0 20 60" fill="none" xmlns="http://www.w3.org/2000/svg">
    <path d="M0 60H3.5L20 30L3.5 0H0L16.2 30L0 60Z" fill="black"/>
  </symbol>


</svg>
